<?xml version="1.0" encoding="utf-8"?>
<!-- Generator: Adobe Illustrator 22.0.1, SVG Export Plug-In . SVG Version: 6.00 Build 0)  -->
<svg version="1.1" id="Layer_1" xmlns="http://www.w3.org/2000/svg" xmlns:xlink="http://www.w3.org/1999/xlink" x="0px" y="0px"
	 viewBox="0 0 1366 300" style="enable-background:new 0 0 1366 300;" xml:space="preserve">
<g>
	<path d="M534.8,103c-1-4.2-2.3-9.5-3.9-16.1c-1.1,4.6-2.2,9-3.2,13.1c-1.1,4.2-2.1,8.2-3.2,12l-18.7,61.5h50.6l-19-61.5
		C536.7,110.2,535.9,107.2,534.8,103z"/>
	<path d="M0,0v300h1366V0H0z M576.4,243.3l-9.4-33.4h-72.2l-9.7,33.4h-50.6l64.3-186.5h63.7l64.5,186.5H576.4z M735.2,243.3
		l-42.8-73v73h-47.6V56.7h53.1c20.8,0,35.3,1,43.5,2.9c8.2,1.9,15.3,5.1,21.2,9.6c6.7,5.1,11.9,11.6,15.5,19.5
		c3.6,7.9,5.4,16.6,5.4,26.1c0,14.4-3.5,26.2-10.6,35.2c-7.1,9-17.4,15.1-31,18l50.8,75.2H735.2z M931.6,100.8h-41.8v142.4h-50.8
		V100.8h-41.8V56.7h134.4V100.8z"/>
	<path d="M726.4,101.8c-4.7-3.9-12.6-5.9-23.8-5.9h-10.2v49h9.4c11,0,19-1.9,24-5.6c5.1-3.7,7.6-9.6,7.6-17.6
		C733.5,112.4,731.1,105.7,726.4,101.8z"/>
</g>
</svg>
