<?xml version="1.0" encoding="utf-8"?>
<!-- Generator: Adobe Illustrator 22.0.1, SVG Export Plug-In . SVG Version: 6.00 Build 0)  -->
<svg version="1.1" id="Layer_1" xmlns="http://www.w3.org/2000/svg" xmlns:xlink="http://www.w3.org/1999/xlink" x="0px" y="0px"
	 viewBox="0 0 1366 300" style="enable-background:new 0 0 1366 300;" xml:space="preserve">
<g>
	<path d="M908.3,126.8c4.7-2.8,7.1-7.7,7.1-14.6c0-7.2-2.2-12.2-6.7-15.1c-4.4-2.9-13.1-4.3-26-4.3h-11.1V131H882
		C894.8,131,903.5,129.6,908.3,126.8z"/>
	<path d="M916.4,169.5c-4.7-3.1-13.3-4.7-25.9-4.7h-18.9V206h18.1c12.3,0,20.9-1.5,26-4.6c5.1-3.1,7.6-8.2,7.6-15.3
		C923.4,178.2,921.1,172.6,916.4,169.5z"/>
	<path d="M0,0v300h1366V0H0z M602,244.7h-47.9l-23.4-80.9c-0.9-2.8-2.3-8.4-4.3-16.7c-0.9-3.7-1.6-6.6-2.1-8.7
		c-0.4,1.8-1,4.4-1.8,7.6c-2,8.4-3.5,14.3-4.5,17.7l-23,80.9h-48L393.5,55.3h52.2l21.7,90.6c1,4.7,2,9.3,3,14
		c1,4.7,1.9,9.4,2.8,14.4c0.8-3.6,1.6-7.4,2.5-11.4c0.9-4,2.3-9.6,4.1-17l23.8-90.6h41.7l23.8,90.1c1.1,4.1,2.2,8.3,3.1,12.7
		c0.9,4.4,1.9,9.4,3,15.1c1.3-6.7,2.4-12.3,3.3-16.6c0.9-4.4,1.8-8.1,2.7-11.2l22.3-90.1h52.2L602,244.7z M789.6,96.8h-65.8v32.9h62
		v40.6h-62v32h65.8v42.5H673.5V55.3h116.1V96.8z M966.1,217.3c-4.3,7.7-10.4,13.6-18.3,17.9c-6.5,3.5-14.5,5.9-23.9,7.4
		c-9.5,1.5-25,2.2-46.6,2.2h-53.5V55.3h51.9c21.4,0,36.3,0.7,44.8,2.1c8.5,1.4,15.8,3.8,21.9,7.1c7,3.9,12.3,9.1,16,15.6
		c3.7,6.5,5.5,14,5.5,22.6c0,10.8-2.7,19.3-8.2,25.7c-5.5,6.3-14.2,11.2-26.2,14.4c13.5,1,24,5.8,31.6,14.2
		c7.6,8.4,11.4,19.7,11.4,33.7C972.5,200.7,970.3,209.6,966.1,217.3z"/>
</g>
</svg>
