<?xml version="1.0" encoding="utf-8"?>
<!-- Generator: Adobe Illustrator 22.0.1, SVG Export Plug-In . SVG Version: 6.00 Build 0)  -->
<svg version="1.1" id="Layer_1" xmlns="http://www.w3.org/2000/svg" xmlns:xlink="http://www.w3.org/1999/xlink" x="0px" y="0px"
	 viewBox="0 0 1366 300" style="enable-background:new 0 0 1366 300;" xml:space="preserve">
<g>
	<path d="M288.4,110.7c-9.2-8.3-23.7-12.5-43.6-12.5h-8.5v102.9h8.5c19.9,0,34.5-4.1,43.6-12.3c9.2-8.2,13.7-21.2,13.7-39
		S297.6,119,288.4,110.7z"/>
	<path d="M0,0v300h1366V0H0z M344.7,193.8c-6.1,12.9-15.1,23.4-26.8,31.6c-9,6.3-19.3,10.8-30.8,13.4c-11.5,2.7-29.4,4-53.7,4h-8.5
		H186V56.6h38.8c28.9,0,49.4,1.4,61.4,4.1c12,2.7,22.5,7.3,31.6,13.6c11.8,8.2,20.7,18.8,26.8,31.6c6.1,12.9,9.2,27.5,9.2,44
		C353.8,166.3,350.8,181,344.7,193.8z M499.8,97.4h-64.6v32.3h60.9v40h-60.9v31.4h64.6v41.7H385.6V56.6h114.1V97.4z M636.8,229.8
		c-13,12-30.3,18-51.9,18c-13,0-24.8-2.2-35.4-6.6c-10.6-4.4-20.9-11.3-30.7-20.7l22.9-37.8c7.5,8.6,15,15,22.3,19.2
		c7.3,4.2,14.7,6.4,21.9,6.4c6.8,0,12.4-1.8,16.7-5.5c4.4-3.6,6.6-8.3,6.6-13.9c0-6.2-1.9-11-5.7-14.3c-3.8-3.4-12.3-6.8-25.6-10.4
		c-18.2-4.9-31.1-11.3-38.7-19.2c-7.6-7.9-11.3-18.7-11.3-32.4c0-17.8,6-32.3,17.9-43.6c11.9-11.2,27.4-16.9,46.4-16.9
		c10.3,0,20,1.4,29.2,4.1c9.2,2.8,17.9,6.9,26.1,12.5l-15.9,36.5c-5.8-4.9-11.7-8.6-17.7-11.1c-6.1-2.5-12.1-3.8-18-3.8
		c-6.1,0-11.1,1.5-14.9,4.4c-3.8,2.9-5.7,6.7-5.7,11.3c0,4.7,1.7,8.4,5,11.2c3.4,2.8,9.8,5.5,19.4,8l2.3,0.6
		c20.7,5.6,34.3,11.7,40.8,18.4c4.4,4.6,7.8,10.1,10.1,16.5c2.3,6.4,3.4,13.5,3.4,21.3C656.3,202,649.8,217.8,636.8,229.8z
		 M737.3,242.9h-51.3V56.6h51.3V242.9z M941.5,220.8c-16.9,17.7-40.7,26.5-71.4,26.5c-15.1,0-28.5-2.3-40.3-6.8
		c-11.8-4.5-22.2-11.5-31.5-20.8c-8.8-8.9-15.7-19.4-20.5-31.6c-4.9-12.2-7.3-24.9-7.3-38.2c0-13.9,2.4-26.7,7.1-38.4
		c4.7-11.7,11.8-22.2,21.2-31.5c9.3-9.1,20-15.9,32.1-20.6c12.1-4.7,25.1-7,39.1-7c18.2,0,34.4,3.6,48.4,10.8
		c14,7.2,25.8,17.9,35.4,32.2l-44,21.1c-5.3-7.2-11.2-12.6-17.7-16.1c-6.6-3.5-13.9-5.3-22.1-5.3c-15.2,0-27.1,5.1-35.9,15.2
		c-8.7,10.1-13.1,24-13.1,41.5c0,17.7,4.4,31.7,13.1,41.9c8.7,10.2,20.7,15.3,35.9,15.3c12.9,0,23.6-3.2,32.3-9.5
		c8.6-6.3,13.6-14.7,15.1-25.3h-50.5v-39.1h99.8c0.1,1.3,0.1,2.7,0.2,4.2c0,1.5,0.1,3.8,0.1,6.7
		C966.9,178.2,958.4,203.1,941.5,220.8z M1180,242.9h-48.7l-70.4-96.2c-1.4-2-3.7-5.9-6.8-11.8c-3.1-5.9-6.5-12.8-10.1-20.8
		c1,7.8,1.8,14.7,2.2,20.7c0.5,6,0.7,11.4,0.7,16v92h-49V56.6h49l70.4,95.8c1.4,2,3.6,5.9,6.7,11.8c3.1,5.9,6.5,12.9,10.2,21.1
		c-1-7.7-1.8-14.6-2.2-20.6c-0.5-6-0.7-11.4-0.7-16v-92h48.7V242.9z"/>
</g>
</svg>
