<?xml version="1.0" encoding="utf-8"?>
<!-- Generator: Adobe Illustrator 22.0.1, SVG Export Plug-In . SVG Version: 6.00 Build 0)  -->
<svg version="1.1" id="Layer_1" xmlns="http://www.w3.org/2000/svg" xmlns:xlink="http://www.w3.org/1999/xlink" x="0px" y="0px"
	 viewBox="0 0 1096 780" style="enable-background:new 0 0 1096 780;" xml:space="preserve">
<style type="text/css">
	.st0{fill:#020605;}
	.st1{fill:#FFFFFF;}
	.st2{fill:#DBDBDB;}
	.st3{fill:#70BFE0;}
	.st4{fill:#8EC7E1;}
	.st5{fill:#BCBEC0;}
	.st6{clip-path:url(#SVGID_2_);}
	.st7{fill:#EA0AE0;}
	.st8{fill:#48C7FF;}
	.st9{clip-path:url(#SVGID_4_);}
</style>
<g>
	<path class="st0" d="M577.6,628H353.2c0,0,1.4,11.2,9,14.8h215.2h0.2h150.3c7.6-3.6,9-14.8,9-14.8H577.6z"/>
	<path class="st0" d="M583.7,539.9c1.8-8.1,3.3-13.4,3.3-13.4h-83.5c0,0,1.5,5.3,3.3,13.4h39H583.7z"/>
	<path class="st0" d="M576.6,593.4c-0.4-4.5-0.3-9.6,0-14.8h-31.1h-0.2h-31.4c0.3,5.3,0.4,10.3,0,14.8h31.9H576.6z"/>
	<path class="st0" d="M578.1,566.6c0.7-5.1,1.5-10.1,2.4-14.8h-34.7h-0.2h-35.8c0.9,4.7,1.7,9.8,2.4,14.8h33.1H578.1z"/>
	<path class="st0" d="M545.7,605.4h-35.9c-0.8,1.1-1.6,2.1-2.6,2.8c0,0-3.7,5.7-20.1,9.7h58.3h58.1c-16.4-3.9-20.1-9.7-20.1-9.7
		c-1-0.7-1.9-1.7-2.6-2.8h-34.9H545.7z"/>
	<path class="st0" d="M939.9,100.6c0.5-10.5-12.1-11.9-12.1-11.9H163.3c0,0-12.5,1.4-12.1,11.9l0,403.1c0,0,0,9.1,10.6,8.9h610.5
		v-95.1c0-16.2,19.5-17.7,19.5-17.7h104.3c0,0,19.5,1.5,19.5,17.7v95.1h13.6c10.6,0.2,10.6-8.9,10.6-8.9L939.9,100.6z"/>
	<path class="st1" d="M554.9,495.1c0,5.4-4.4,9.8-9.8,9.8c-5.4,0-9.8-4.4-9.8-9.8c0-5.4,4.4-9.8,9.8-9.8
		C550.5,485.3,554.9,489.6,554.9,495.1z"/>
</g>
<path class="st2" d="M734.3,103.2L734.3,103.2l-569.6,0V475l607.6,0v-57.5c0-16.2,19.5-17.7,19.5-17.7h104.3c0,0,19.5,1.5,19.5,17.7
	V475h9.7V103.2H734.3z"/>
<g>
	<path class="st1" d="M877.9,569.1c-2.5,0-4.6,2-4.6,4.6c0,2.5,2,4.6,4.6,4.6c2.5,0,4.6-2,4.6-4.6
		C882.5,571.2,880.4,569.1,877.9,569.1z"/>
</g>
<path class="st1" d="M915.7,475H772.3v-57.5c0-16.2,19.5-17.7,19.5-17.7h104.3c0,0,19.5,1.5,19.5,17.7"/>
<polyline class="st1" points="915.7,512.6 772.3,512.6 772.3,475 915.7,475 "/>
<path class="st1" d="M915.7,669.8c0,0,0.4,16.1-18.2,16.1h-107c-18.6,0-18.2-16.1-18.2-16.1V512.6h143.4"/>
<g>
	<path class="st0" d="M912.3,660.7V420.5c0-15.4-18.6-16.9-18.6-16.9H844h-49.7c0,0-18.6,1.5-18.6,16.9v240.3
		c0,0-0.4,15.4,17.3,15.4h51h51C912.7,676.1,912.3,660.7,912.3,660.7z"/>
	<polygon class="st3" points="904.6,438.5 783.4,438.5 783.4,588.9 904.6,465.5 	"/>
	<polygon class="st4" points="783.4,588.9 783.4,643 904.6,643 904.6,465.5 	"/>
	<polygon class="st4" points="783.4,438.5 783.4,588.9 783.4,643 904.6,643 904.6,465.5 904.6,438.5 	"/>
	<path class="st1" d="M852.6,660.6c0,4.7-3.8,8.5-8.5,8.5c-4.7,0-8.5-3.8-8.5-8.5c0-4.7,3.8-8.5,8.5-8.5
		C848.7,652.1,852.6,655.9,852.6,660.6z"/>
	<g>
		<rect x="823" y="422.1" class="st5" width="42" height="2"/>
	</g>
</g>
<g>
	<defs>
		<path id="SVGID_1_" d="M734.3,103.2L734.3,103.2l-569.6,0V475l607.6,0v-57.5c0-16.2,19.5-17.7,19.5-17.7h104.3
			c0,0,19.5,1.5,19.5,17.7V475h9.7V103.2H734.3z"/>
	</defs>
	<clipPath id="SVGID_2_">
		<use xlink:href="#SVGID_1_"  style="overflow:visible;"/>
	</clipPath>
	<g class="st6">
		<rect x="102.6" y="42.5" class="st7" width="880.7" height="88.1"/>
		<rect x="164.7" y="130.6" class="st8" width="251.4" height="347.4"/>
		<rect x="487.8" y="139.8" class="st8" width="356.2" height="209.7"/>
		<g>
			<rect x="185.1" y="279.2" class="st1" width="200.9" height="17.4"/>
			<rect x="185.1" y="306.9" class="st1" width="200.9" height="17.4"/>
			<rect x="185.1" y="334.6" class="st1" width="200.9" height="17.4"/>
			<rect x="185.1" y="362.3" class="st1" width="200.9" height="17.4"/>
			<rect x="185.1" y="389.9" class="st1" width="200.9" height="17.4"/>
			<rect x="185.1" y="417.6" class="st1" width="200.9" height="17.4"/>
			<rect x="185.1" y="445.3" class="st1" width="200.9" height="17.4"/>
		</g>
		<g>
			<rect x="487.2" y="371.7" width="165.3" height="7.1"/>
			<rect x="487.2" y="383" width="165.3" height="7.1"/>
			<rect x="487.2" y="394.3" width="165.3" height="7.1"/>
			<rect x="487.2" y="405.6" width="165.3" height="7.1"/>
			<rect x="487.2" y="416.9" width="165.3" height="7.1"/>
			<rect x="487.2" y="428.1" width="165.3" height="7.1"/>
			<rect x="487.2" y="439.4" width="165.3" height="7.1"/>
		</g>
		<g>
			<rect x="678.7" y="371.7" width="165.3" height="7.1"/>
			<rect x="678.7" y="383" width="165.3" height="7.1"/>
			<rect x="678.7" y="394.3" width="165.3" height="7.1"/>
			<rect x="678.7" y="405.6" width="165.3" height="7.1"/>
			<rect x="678.7" y="416.9" width="165.3" height="7.1"/>
			<rect x="678.7" y="428.1" width="165.3" height="7.1"/>
			<rect x="678.7" y="439.4" width="165.3" height="7.1"/>
		</g>
		<path class="st1" d="M681.4,245.3l-20.1,10.1c-0.8,0.4-1.7-0.2-1.7-1v-20.2c0-0.9,0.9-1.4,1.7-1l20.1,10.1
			C682.3,243.7,682.3,244.9,681.4,245.3z"/>
	</g>
</g>
<g>
	<defs>
		<polygon id="SVGID_3_" points="783.4,438.5 783.4,588.9 783.4,643 904.6,643 904.6,465.5 904.6,438.5 		"/>
	</defs>
	<clipPath id="SVGID_4_">
		<use xlink:href="#SVGID_3_"  style="overflow:visible;"/>
	</clipPath>
	<g class="st9">
		<rect x="779.1" y="450.4" class="st8" width="129.6" height="76.3"/>
		<path class="st1" d="M849.5,488.8l-7.3,3.7c-0.3,0.1-0.6-0.1-0.6-0.4v-7.4c0-0.3,0.3-0.5,0.6-0.4l7.3,3.7
			C849.8,488.2,849.8,488.7,849.5,488.8z"/>
		<g>
			<rect x="758.9" y="527.4" width="165.3" height="7.1"/>
			<rect x="758.9" y="538.7" width="165.3" height="7.1"/>
			<rect x="758.9" y="550" width="165.3" height="7.1"/>
			<rect x="758.9" y="561.3" width="165.3" height="7.1"/>
			<rect x="758.9" y="572.5" width="165.3" height="7.1"/>
			<rect x="758.9" y="583.8" width="165.3" height="7.1"/>
			<rect x="758.9" y="595.1" width="165.3" height="7.1"/>
		</g>
		<rect x="772.3" y="427.7" class="st7" width="143.4" height="23.3"/>
		<rect x="798.3" y="611.6" class="st2" width="37.1" height="26.7"/>
		<rect x="855.3" y="611.6" class="st2" width="37.1" height="26.7"/>
	</g>
</g>
</svg>
