<?xml version="1.0" encoding="utf-8"?>
<!-- Generator: Adobe Illustrator 22.0.1, SVG Export Plug-In . SVG Version: 6.00 Build 0)  -->
<svg version="1.1" id="Layer_1" xmlns="http://www.w3.org/2000/svg" xmlns:xlink="http://www.w3.org/1999/xlink" x="0px" y="0px"
	 viewBox="0 0 613 612" style="enable-background:new 0 0 613 612;" xml:space="preserve">
<style type="text/css">
	.st0{fill:#39B54A;}
</style>
<g>
	<circle cx="202" cy="412.5" r="76.5"/>
	<circle class="st0" cx="205.6" cy="199.5" r="76.5"/>
	<path d="M614,306C614,137.3,477.2,0.5,308.5,0.5S3,137.3,3,306s136.8,305.5,305.5,305.5S614,474.7,614,306z M205.6,93
		c58.8,0,106.5,47.7,106.5,106.5c0-0.9,0-1.7,0-2.6c1.3-56.5,47.5-102.6,104-103.9c46.3-1,86.1,27.5,101.8,68.1h-33.2
		c-17.1-29.3-53.1-46.3-91.1-34.1c-22.7,7.3-40.5,25.2-47.7,47.9C329.4,227.5,368.4,276,418.6,276c28.2,0,52.9-15.3,66.1-38.1h33.2
		c-15.4,39.8-54.1,68.1-99.3,68.1c-58.8,0-106.5-47.7-106.5-106.5c0,58.8-47.7,106.5-106.5,106.5c-58.8,0-106.5-47.7-106.5-106.5
		C99.1,140.7,146.8,93,205.6,93z M491.5,412.5c0-37-26.5-68-61.5-75V519h-30V337.5c-35,7-61.5,38-61.5,75h-30V519H280v-34
		c-19.4,20.9-47.2,34-78,34c-58.8,0-106.5-47.7-106.5-106.5C95.5,353.7,143.2,306,202,306c58.8,0,106.5,47.7,106.5,106.5
		c0-58.8,47.7-106.5,106.5-106.5c58.8,0,106.5,47.7,106.5,106.5H491.5z"/>
</g>
</svg>
