<?xml version="1.0" encoding="UTF-8" standalone="no"?>
<!-- Generator: Adobe Illustrator 22.0.1, SVG Export Plug-In . SVG Version: 6.00 Build 0)  -->

<svg
   xmlns:dc="http://purl.org/dc/elements/1.1/"
   xmlns:cc="http://creativecommons.org/ns#"
   xmlns:rdf="http://www.w3.org/1999/02/22-rdf-syntax-ns#"
   xmlns:svg="http://www.w3.org/2000/svg"
   xmlns="http://www.w3.org/2000/svg"
   xmlns:sodipodi="http://sodipodi.sourceforge.net/DTD/sodipodi-0.dtd"
   xmlns:inkscape="http://www.inkscape.org/namespaces/inkscape"
   version="1.1"
   id="Layer_1"
   x="0px"
   y="0px"
   viewBox="0 0 1935 1402.5071"
   xml:space="preserve"
   sodipodi:docname="OCAT-header-round.svg"
   width="1935"
   height="1402.5071"
   inkscape:version="0.92.3 (2405546, 2018-03-11)"><metadata
   id="metadata19"><rdf:RDF><cc:Work
       rdf:about=""><dc:format>image/svg+xml</dc:format><dc:type
         rdf:resource="http://purl.org/dc/dcmitype/StillImage" /><dc:title></dc:title></cc:Work></rdf:RDF></metadata><defs
   id="defs17" /><sodipodi:namedview
   pagecolor="#ffffff"
   bordercolor="#666666"
   borderopacity="1"
   objecttolerance="10"
   gridtolerance="10"
   guidetolerance="10"
   inkscape:pageopacity="0"
   inkscape:pageshadow="2"
   inkscape:window-width="1265"
   inkscape:window-height="810"
   id="namedview15"
   showgrid="false"
   showguides="true"
   inkscape:guide-bbox="true"
   fit-margin-top="0"
   fit-margin-left="0"
   fit-margin-right="0"
   fit-margin-bottom="0"
   inkscape:zoom="0.20918575"
   inkscape:cx="968.00452"
   inkscape:cy="361.14177"
   inkscape:window-x="0"
   inkscape:window-y="0"
   inkscape:window-maximized="0"
   inkscape:current-layer="Layer_1"><sodipodi:guide
     position="-1352.1127,1404.1972"
     orientation="0,1"
     id="guide3741"
     inkscape:locked="false" /><sodipodi:guide
     position="-98.02817,1.3802695"
     orientation="0,1"
     id="guide3743"
     inkscape:locked="false" /></sodipodi:namedview>
<style
   type="text/css"
   id="style2">
	.st0{fill:#37B34A;}
</style>
<path
   d="M 0,160.25352 V 1242.2535 H 1935 V 160.25352 Z M 960,1235.2535 c -294.4,0 -533,-238.59998 -533,-532.99998 0,-294.4 238.6,-533 533,-533 294.4,0 533,238.6 533,533 0,294.4 -238.6,532.99998 -533,532.99998 z"
   id="path4"
   inkscape:connector-curvature="0" />
<g
   id="g12"
   transform="translate(0,162.25352)">
	<circle
   cx="814.59998"
   cy="685.40002"
   r="104.4"
   id="circle6" />
	<circle
   class="st0"
   cx="819.5"
   cy="394.60001"
   r="104.4"
   id="circle8"
   style="fill:#37b34a" />
	<path
   d="m 1377,540 c 0,-230.3 -186.7,-417 -417,-417 -230.3,0 -417,186.7 -417,417 0,230.3 186.7,417 417,417 230.3,0 417,-186.7 417,-417 z M 819.5,249.3 c 80.3,0 145.4,65.1 145.4,145.4 0,-1.2 0,-2.4 0,-3.5 1.8,-77.1 64.8,-140 142,-141.8 63.2,-1.4 117.5,37.5 139,92.9 h -45.4 c -23.3,-40 -72.4,-63.2 -124.4,-46.5 -30.9,9.9 -55.3,34.4 -65,65.4 -22.6,71.8 30.7,138 99.2,138 38.5,0 72.2,-20.9 90.3,-52 h 45.4 c -21,54.4 -73.8,92.9 -135.6,92.9 C 1030.1,540.1 965,475 965,394.7 965,475 899.9,540.1 819.6,540.1 739.3,540.1 674.2,475 674.2,394.7 c -0.1,-80.4 65,-145.4 145.3,-145.4 z m 390.3,436.1 c 0,-50.6 -36.1,-92.8 -83.9,-102.4 V 830.8 H 1085 V 583 c -47.8,9.5 -83.9,51.8 -83.9,102.4 H 960 v 145.4 h -38.9 v -46.4 c -26.5,28.5 -64.4,46.4 -106.5,46.4 -80.3,0 -145.4,-65.1 -145.4,-145.4 0,-80.3 65.1,-145.4 145.4,-145.4 80.3,0 145.4,65.1 145.4,145.4 0,-80.3 65.1,-145.4 145.4,-145.4 80.3,0 145.4,65.1 145.4,145.4 z"
   id="path10"
   inkscape:connector-curvature="0" />
</g>
<rect
   id="rect3724"
   width="1933.5211"
   height="162.25352"
   x="0"
   y="1240.2535" /><rect
   id="rect3724-5"
   width="1933.5211"
   height="162.25352"
   x="1.4788818"
   y="0" /></svg>